<svg xmlns="http://www.w3.org/2000/svg" viewBox="0 0 1778.531 947.289"><title>MAIN PAGE TEXT</title><polygon points="0 347.769 40.483 347.769 40.483 372.96 36.391 372.96 36.391 351.861 22.261 351.861 22.261 371.362 18.063 371.362 18.063 351.861 4.091 351.861 4.091 372.96 0 372.96 0 347.769" fill="#ecf0f1"/><polygon points="0 414.626 16.739 403.815 0 393.004 0 388.037 20.192 401.365 40.483 388.104 40.483 392.889 23.923 403.812 40.483 414.686 40.483 419.531 20.189 406.211 0 419.48 0 414.626" fill="#ecf0f1"/><polygon points="0 445.645 36.391 445.645 36.391 433.071 40.483 433.071 40.483 462.311 36.391 462.311 36.391 449.737 0 449.737 0 445.645" fill="#ecf0f1"/><path d="M91.474,550.545H107.2v10.74q0,.183,0,.363c0,5.883-2.441,8.623-7.681,8.623-5.644,0-8.052-2.695-8.052-9.01v-7.166L70.706,569.737v5.006L87.553,562c.236,8.057,4.383,12.308,12.054,12.308,7.576-.158,11.581-4.688,11.581-13.1v-14.7H70.706v4.038H91.474Z" transform="translate(-70.706 -65.91)" fill="#ecf0f1"/><path d="M88.277,612.135l16.56-6.118L88.277,599.9l-4.091-1.5-13.48-5.009v-4.379l40.483,14.981v4.052L70.706,623.023v-4.379l13.48-5.009Z" transform="translate(-70.706 -65.91)" fill="#ecf0f1"/><polygon points="5.435 584.601 17.53 584.601 17.53 572.293 21.514 572.293 21.514 584.601 33.556 584.601 33.556 588.532 21.514 588.532 21.514 600.414 17.53 600.414 17.53 588.532 5.435 588.532 5.435 584.601" fill="#ecf0f1"/><path d="M1849.236,759.772c0,7.252-4.1,14.593-11.929,14.593h-17.69a10.666,10.666,0,0,1-9-4.773,17.409,17.409,0,0,1-2.93-9.98c0-5.634,2.333-10.576,6.089-12.9l1.088-.672,2.488,3.42-1.283.778c-2.6,1.576-4.344,5.406-4.344,9.53,0,7.216,4.091,10.5,7.891,10.5h17.69c5.385,0,7.838-5.444,7.838-10.5,0-4.243-1.577-7.9-4.114-9.553l-1.034-.672,1.813-3.624,1.284.793C1846.883,749.057,1849.236,754.059,1849.236,759.772Z" transform="translate(-70.706 -65.91)" fill="#ecf0f1"/><polygon points="1777.998 610.366 1737.515 610.366 1737.515 606.275 1773.906 606.275 1773.906 587.413 1777.998 587.413 1777.998 610.366" fill="#ecf0f1"/><polygon points="1777.998 569.18 1737.515 569.18 1737.515 565.089 1773.906 565.089 1773.906 546.227 1777.998 546.227 1777.998 569.18" fill="#ecf0f1"/><polygon points="1777.998 527.994 1737.515 527.994 1737.515 502.803 1741.606 502.803 1741.606 523.903 1755.737 523.903 1755.737 504.402 1759.935 504.402 1759.935 523.903 1773.906 523.903 1773.906 502.803 1777.998 502.803 1777.998 527.994" fill="#ecf0f1"/><path d="M1849.236,535.567c0,7.252-4.1,14.593-11.929,14.593h-17.69a10.666,10.666,0,0,1-9-4.774,17.408,17.408,0,0,1-2.93-9.98c0-5.634,2.333-10.576,6.089-12.9l1.088-.672,2.488,3.42-1.283.778c-2.6,1.576-4.344,5.406-4.344,9.53,0,7.216,4.091,10.5,7.891,10.5h17.69c5.385,0,7.838-5.444,7.838-10.5,0-4.243-1.577-7.9-4.114-9.553l-1.034-.672,1.813-3.624,1.284.793C1846.883,524.852,1849.236,529.855,1849.236,535.567Z" transform="translate(-70.706 -65.91)" fill="#ecf0f1"/><polygon points="1777.998 428.626 1741.606 428.626 1741.606 441.2 1737.515 441.2 1737.515 411.96 1741.606 411.96 1741.606 424.534 1777.998 424.534 1777.998 428.626" fill="#ecf0f1"/><rect x="1737.515" y="389.583" width="40.483" height="4.091" fill="#ecf0f1"/><polygon points="1777.998 292.1 1745.472 312.067 1777.998 312.115 1777.998 316.258 1737.515 316.258 1737.515 312.029 1770.466 291.748 1737.515 291.748 1737.515 287.657 1777.998 287.657 1777.998 292.1" fill="#ecf0f1"/><path d="M1849.236,319.729c0,5.718-2.5,10.789-6.692,13.565l-1.372.909-1.638-3.771.927-.646c2.922-2.036,4.737-5.931,4.737-10.164,0-4.07-1.784-9.06-6.807-9.763-5.068-.339-6.907,3.472-8.368,10.164-.842,4.055-2.819,13.584-11.853,13.179a9.725,9.725,0,0,1-8-4.507,16.355,16.355,0,0,1-2.478-9.02c0-5.935,2.309-10.524,6.5-12.92l1.387-.792,1.494,3.817-1.026.593c-3.185,1.841-4.319,6.013-4.319,9.3,0,2.112.476,9.035,6.6,9.44,2.421.184,5.839-.651,7.721-9.979.694-3.5,2.809-14.168,12.587-13.465C1845.593,306.16,1849.236,313.113,1849.236,319.729Z" transform="translate(-70.706 -65.91)" fill="#ecf0f1"/><path d="M1848.7,712.565a20.81,20.81,0,1,1-20.81-20.81A20.833,20.833,0,0,1,1848.7,712.565Zm-37.48,0a16.671,16.671,0,1,0,16.671-16.671A16.689,16.689,0,0,0,1811.223,712.565Z" transform="translate(-70.706 -65.91)" fill="#ecf0f1"/><path d="M1848.7,418.857a20.81,20.81,0,1,1-20.81-20.81A20.833,20.833,0,0,1,1848.7,418.857Zm-37.48,0a16.671,16.671,0,1,0,16.671-16.671A16.689,16.689,0,0,0,1811.223,418.857Z" transform="translate(-70.706 -65.91)" fill="#ecf0f1"/><polygon points="695.514 946.721 695.514 906.238 699.606 906.238 699.606 942.629 718.467 942.629 718.467 946.721 695.514 946.721" fill="#ecf0f1"/><path d="M870.485,1013.164c-7.252,0-14.593-4.153-14.593-12.089V983.545c0-7.832,7.341-11.93,14.593-11.93,5.581,0,10.5,2.354,12.843,6.143l.707,1.145-3.6,2.344-.718-1.3c-1.472-2.657-4.965-4.244-9.343-4.244-5.007,0-10.4,2.453-10.4,7.838v17.529c0,5.532,5.444,8.051,10.5,8.051,7.252,0,10.555-4.173,10.555-8.051v-5.76H869.478v-4.038h15.654v9.8C885.132,1009.011,877.763,1013.164,870.485,1013.164Z" transform="translate(-70.706 -65.91)" fill="#ecf0f1"/><polygon points="885.938 946.721 885.938 906.238 910.437 906.238 910.437 910.329 890.03 910.329 890.03 925.153 908.572 925.153 908.572 929.244 890.03 929.244 890.03 946.721 885.938 946.721" fill="#ecf0f1"/><polygon points="980.351 946.721 980.351 906.238 984.443 906.238 984.443 942.629 1003.305 942.629 1003.305 946.721 980.351 946.721" fill="#ecf0f1"/><rect x="1021.537" y="906.238" width="4.091" height="40.483" fill="#ecf0f1"/><path d="M919.508,1013.2a20.81,20.81,0,1,1,20.81-20.81A20.833,20.833,0,0,1,919.508,1013.2Zm0-37.48a16.671,16.671,0,1,0,16.671,16.671A16.69,16.69,0,0,0,919.508,975.718Z" transform="translate(-70.706 -65.91)" fill="#ecf0f1"/><path d="M1014.369,1013.2a20.81,20.81,0,1,1,20.81-20.81A20.833,20.833,0,0,1,1014.369,1013.2Zm0-37.48a16.671,16.671,0,1,0,16.671,16.671A16.69,16.69,0,0,0,1014.369,975.718Z" transform="translate(-70.706 -65.91)" fill="#ecf0f1"/><path d="M1132.971,1013.2a20.81,20.81,0,1,1,20.81-20.81A20.833,20.833,0,0,1,1132.971,1013.2Zm0-37.48a16.671,16.671,0,1,0,16.671,16.671A16.69,16.69,0,0,0,1132.971,975.718Z" transform="translate(-70.706 -65.91)" fill="#ecf0f1"/><path d="M820,1013.2a20.81,20.81,0,1,1,20.81-20.81A20.833,20.833,0,0,1,820,1013.2Zm0-37.48a16.671,16.671,0,1,0,16.671,16.671A16.69,16.69,0,0,0,820,975.718Z" transform="translate(-70.706 -65.91)" fill="#ecf0f1"/><path d="M571.3,89.39l-6.118-16.56-6.118,16.56-1.5,4.091-5.009,13.48h-4.379l14.981-40.483h4.053l14.981,40.483h-4.379L572.8,93.481Z" transform="translate(-70.706 -65.91)" fill="#ecf0f1"/><path d="M622.433,85.281c2.358-1.783,3.643-4.676,3.643-8.258,0-6.307-4.516-10.544-11.237-10.544h-15.18v40.483h15.127c8.538,0,12.946-3.843,13.1-11.428C627.96,90.9,625.937,87.129,622.433,85.281ZM603.75,70.463h11.088c4.508,0,7.2,2.472,7.2,6.613,0,2.968-1.249,6.506-7.2,6.506h-7.523V87.62h7.708c5.984,0,8.772,2.491,8.772,7.839,0,2.644-.745,4.526-2.278,5.753-1.422,1.138-3.541,1.716-6.3,1.716,0,0-.237,0-.38,0H603.75Z" transform="translate(-70.706 -65.91)" fill="#ecf0f1"/><path d="M713.567,107.494c-7.252,0-14.594-4.207-14.594-12.249V66.478h4.091V95.245c0,5.641,5.444,8.211,10.5,8.211,7.252,0,10.555-4.256,10.555-8.211V66.478h4.091V95.245C728.214,103.287,720.846,107.494,713.567,107.494Z" transform="translate(-70.706 -65.91)" fill="#ecf0f1"/><polygon points="688.102 41.051 688.102 4.66 675.527 4.66 675.527 0.568 704.768 0.568 704.768 4.66 692.193 4.66 692.193 41.051 688.102 41.051" fill="#ecf0f1"/><polygon points="781.023 41.051 781.023 8.385 769.291 35.084 765.684 35.084 753.891 8.679 753.891 41.051 749.8 41.051 749.8 0.568 754.903 0.568 767.482 29.057 780.011 0.568 785.115 0.568 785.115 41.051 781.023 41.051" fill="#ecf0f1"/><polygon points="807.183 41.051 807.183 0.568 832.374 0.568 832.374 4.66 811.275 4.66 811.275 18.791 830.776 18.791 830.776 22.988 811.275 22.988 811.275 36.96 832.374 36.96 832.374 41.051 807.183 41.051" fill="#ecf0f1"/><path d="M662.551,107.529a20.81,20.81,0,1,1,20.81-20.81A20.833,20.833,0,0,1,662.551,107.529Zm0-37.48A16.671,16.671,0,1,0,679.222,86.72,16.69,16.69,0,0,0,662.551,70.049Z" transform="translate(-70.706 -65.91)" fill="#ecf0f1"/><path d="M1080.44,107.494c-7.252,0-14.593-4.1-14.593-11.929V77.875a10.666,10.666,0,0,1,4.773-9,17.408,17.408,0,0,1,9.98-2.93c5.634,0,10.576,2.333,12.9,6.09l.672,1.089-3.42,2.486-.778-1.282c-1.576-2.6-5.406-4.344-9.53-4.344-7.216,0-10.5,4.091-10.5,7.892V95.565c0,5.385,5.444,7.838,10.5,7.838,4.243,0,7.9-1.576,9.553-4.114l.672-1.033,3.624,1.812-.793,1.284C1091.155,105.14,1086.153,107.494,1080.44,107.494Z" transform="translate(-70.706 -65.91)" fill="#ecf0f1"/><polygon points="1117.389 41.051 1097.421 8.525 1097.373 41.051 1093.23 41.051 1093.23 0.568 1097.459 0.568 1117.74 33.519 1117.74 0.568 1121.831 0.568 1121.831 41.051 1117.389 41.051" fill="#ecf0f1"/><polygon points="1152.691 41.051 1152.691 4.66 1140.117 4.66 1140.117 0.568 1169.357 0.568 1169.357 4.66 1156.782 4.66 1156.782 41.051 1152.691 41.051" fill="#ecf0f1"/><path d="M1258.823,93.481l-5.009,13.48h-4.379l14.981-40.483h4.052l14.981,40.483h-4.379l-5.009-13.48-1.5-4.091-6.118-16.56-6.118,16.56Z" transform="translate(-70.706 -65.91)" fill="#ecf0f1"/><path d="M1314.128,107.494c-7.252,0-14.593-4.1-14.593-11.929V77.875a10.665,10.665,0,0,1,4.774-9,17.407,17.407,0,0,1,9.98-2.93c5.634,0,10.576,2.333,12.9,6.09l.672,1.089-3.42,2.486-.778-1.282c-1.576-2.6-5.406-4.344-9.53-4.344-7.216,0-10.5,4.091-10.5,7.892V95.565c0,5.385,5.444,7.838,10.5,7.838,4.243,0,7.9-1.576,9.553-4.114l.672-1.033,3.624,1.812-.793,1.284C1324.844,105.14,1319.841,107.494,1314.128,107.494Z" transform="translate(-70.706 -65.91)" fill="#ecf0f1"/><polygon points="1284.454 41.051 1284.454 4.66 1271.88 4.66 1271.88 0.568 1301.12 0.568 1301.12 4.66 1288.546 4.66 1288.546 41.051 1284.454 41.051" fill="#ecf0f1"/><path d="M1127.247,107.529a20.81,20.81,0,1,1,20.81-20.81A20.833,20.833,0,0,1,1127.247,107.529Zm0-37.48a16.671,16.671,0,1,0,16.671,16.671A16.69,16.69,0,0,0,1127.247,70.049Z" transform="translate(-70.706 -65.91)" fill="#ecf0f1"/><rect x="982.546" y="76.424" width="4.091" height="16.5" transform="translate(998.56 -965.828) rotate(90)" fill="#ecf0f1"/></svg>